<mxfile host="app.diagrams.net" modified="2023-07-16T18:21:38.394Z" agent="Mozilla/5.0 (Windows NT 10.0; Win64; x64; rv:109.0) Gecko/20100101 Firefox/115.0" version="21.6.1" etag="Pzk2ngCYQ-2L74G7rfOo" type="github">
  <diagram name="Page-1" id="8njlvRgviB-rSP1fm2bq">
    <mxGraphModel>
      <root>
        <mxCell id="0" />
        <mxCell id="1" parent="0" />
      </root>
    </mxGraphModel>
  </diagram>
</mxfile>
